<svg width="27" height="24" viewBox="0 0 27 24" fill="none" xmlns="http://www.w3.org/2000/svg">
<path d=d="M467.01 547.46c-106.8,117.11 -174.78,267.65 -220.99,436.95 -50.22,-32.81 -100.45,-65.63 -150.67,-98.44 89.3,-134.36 206.61,-251.29 371.66,-338.51zm371.81 -266.02c-8.86,36.6 -17.72,77.33 -26.59,113.93 -97.08,17.22 -199.55,65.42 -303.98,124.83 82.13,-103.73 207.37,-172.38 330.57,-238.76z"/>
<path d="M17.9394 6.3125H15.8848C14.1848 6.3125 12.7927 7.67599 12.7927 9.3411V11.5299H10.558C8.85792 11.5299 7.46582 12.8934 7.46582 14.5585V16.5709C7.46582 17.4409 8.19841 18.1585 9.08673 18.1585H11.1414C12.8414 18.1585 14.2335 16.7951 14.2335 15.13V12.9411H16.4683C18.1683 12.9411 19.5604 11.5776 19.5604 9.9125V7.9001C19.5604 7.00186 18.8244 6.3125 17.9394 6.3125ZM12.7927 15.1051C12.7927 15.999 12.054 16.7225 11.1414 16.7225H9.08673C8.98578 16.7225 8.90666 16.6449 8.90666 16.5461V14.5336C8.90666 13.6397 9.6453 12.9163 10.558 12.9163H12.7927V15.1051ZM18.1195 9.8877C18.1195 10.7816 17.3809 11.505 16.4683 11.505H14.2335V9.3162C14.2335 8.42236 14.9721 7.69889 15.8848 7.69889H17.9394C18.0404 7.69889 18.1195 7.77639 18.1195 7.87526V9.8877Z" fill="#262D3F" stroke="white" stroke-width="0.5"/>
</svg>
